<svg width="54" height="41" viewBox="0 0 54 41" fill="none" xmlns="http://www.w3.org/2000/svg">
<g clip-path="url(#clip0_3101_448)">
<path d="M19.9718 18.7251C20.8072 16.9892 21.6451 15.2543 22.477 13.5167C23.3315 11.7305 24.1573 9.93036 25.0413 8.15978C25.4946 7.25061 25.6821 6.32147 25.6283 5.31591C25.4676 2.34179 23.0015 0.198687 20.0604 0.570344C17.5899 0.882952 15.8445 2.29664 14.7044 4.45016C13.9619 5.85169 13.3254 7.30879 12.6481 8.74419C12.0211 10.0736 11.3412 11.3788 10.7811 12.7395C10.7134 12.8663 10.6405 12.9913 10.5788 13.1207C8.95497 16.516 7.3242 19.9078 5.71339 23.3083C4.16598 26.5733 2.64201 29.8496 1.10155 33.1181C0.683001 34.0064 0.542327 34.933 0.623953 35.9047C0.857541 38.666 3.21774 40.6954 5.97043 40.4488C8.57463 40.2152 10.3747 38.7485 11.4697 36.4778C13.1769 32.9375 14.8502 29.379 16.5557 25.8378C17.6967 23.4681 18.8334 21.0966 19.9718 18.726V18.7251Z" fill="#FB923C"/>
<path d="M52.2865 33.0845C51.2636 31.0005 50.2754 28.8982 49.2724 26.8046C48.8817 25.9892 48.4883 25.1746 48.0967 24.3601C47.4437 22.9803 46.795 21.5979 46.1377 20.2198C44.2724 16.3131 42.4029 12.4089 40.535 8.50393C39.9888 7.36117 39.4296 6.22362 38.8999 5.07305C38.2096 3.57427 37.1589 2.41241 35.6991 1.64478C33.5916 0.535886 31.1811 0.880624 29.5164 2.49924C27.9447 4.02668 27.5574 6.35475 28.53 8.37802C31.0916 13.7106 33.6464 19.0458 36.2097 24.3766C37.0425 26.1081 37.8926 27.831 38.7349 29.5581C38.7445 29.5998 38.7462 29.6458 38.7644 29.684C39.9671 32.2309 41.1385 34.7934 42.3864 37.3178C43.1644 38.8921 44.4192 40.0149 46.0847 40.621C48.8869 41.6413 51.8054 40.3179 52.6894 37.6278C53.2035 36.063 53.0098 34.5564 52.2874 33.0845H52.2865Z" fill="#FB923C"/>
<path d="M27.1922 12.2072C27.1471 12.1151 27.1401 11.9719 26.9543 11.9745C26.1789 13.5618 25.3913 15.1535 24.6219 16.753C23.7648 18.5358 22.9243 20.3263 22.0759 22.1134C22.0463 22.1629 22.0116 22.2098 21.9873 22.2619C20.2697 25.8881 18.5477 29.5118 16.8379 33.1424C16.4576 33.9508 16.2839 34.8114 16.3056 35.711C16.376 38.6434 18.9029 40.8369 21.798 40.4574C24.0418 40.1639 25.6144 38.8831 26.778 37.0179C27.0993 36.5029 27.3095 35.9333 27.5665 35.3871C28.1752 34.0924 28.7735 32.7933 29.3753 31.496C30.5962 29.0837 31.6174 26.5776 32.8105 24.1523C32.9008 23.9682 32.8452 23.8275 32.7671 23.666C30.9079 19.847 29.0523 16.0262 27.1931 12.208L27.1922 12.2072Z" fill="#FB923C"/>
</g>
<defs>
<clipPath id="clip0_3101_448">
<rect width="52.7987" height="40" fill="white" transform="translate(0.600586 0.5)"/>
</clipPath>
</defs>
</svg>
